<svg version="1.1" viewBox="0 0 32 32" xmlns="http://www.w3.org/2000/svg" id="Calculator-Icon--Streamline-Emojitwo" height="32" width="32">
  <desc>
    Calculator Icon Streamline Emoji: https://streamlinehq.com
  </desc>
  <title>Pocket Calculator</title>
  <path d="M5.895 1c-0.25 0 -0.5 0.25 -0.5 0.5v29c0 0.25 0.25 0.5 0.5 0.5h20.215c0.25 0 0.5 -0.25 0.5 -0.5V1.5c0 -0.25 -0.25 -0.5 -0.5 -0.5z" fill="#d0d0d0" stroke-width="0.5"></path>
  <path d="M7.325 6.15c-0.24605 0.008215 -0.4883 0.27335 -0.4883 0.5385v6.515c0 0.26915 0.25 0.5385 0.5 0.5385h17.33c0.25 0 0.5 -0.26915 0.5 -0.5385v-6.515c0 -0.26915 -0.25 -0.5385 -0.5 -0.5385h-17.33c-0.0039 0 -0.007815 -0.000131 -0.01172 0z" fill="#4fd1d9" stroke-width="0.5"></path>
  <path d="M7.325 15.185c-0.24605 0.00763 -0.4883 0.2539 -0.4883 0.5v1.5115c0 0.2448 0.2397 0.48895 0.4844 0.499h1.543c0.2447 -0.010095 0.4844 -0.25425 0.4844 -0.499V15.685c0 -0.25 -0.25 -0.5 -0.5 -0.5H7.325zm3.954 0c-0.24605 0.00763 -0.4883 0.2539 -0.4883 0.5v1.5115c0 0.25 0.25 0.5 0.5 0.5h1.5115c0.25 0 0.5 -0.25 0.5 -0.5V15.685c0 -0.25 -0.25 -0.5 -0.5 -0.5h-1.5115c-0.0039 0 -0.007815 -0.0001215 -0.01172 0zm3.954 0c-0.24605 0.00763 -0.4883 0.2539 -0.4883 0.5v1.5115c0 0.25 0.25 0.5 0.5 0.5h1.5115c0.25 0 0.5 -0.25 0.5 -0.5V15.685c0 -0.25 -0.25 -0.5 -0.5 -0.5h-1.5115c-0.0039 0 -0.007815 -0.0001215 -0.01172 0zm3.954 0c-0.24605 0.00763 -0.4883 0.2539 -0.4883 0.5v1.5115c0 0.25 0.25 0.5 0.5 0.5h1.5115c0.25 0 0.5 -0.25 0.5 -0.5V15.685c0 -0.25 -0.25 -0.5 -0.5 -0.5h-1.5115c-0.003906 0 -0.007815 -0.0001215 -0.01172 0zm0 3.954c-0.24605 0.00763 -0.4883 0.2539 -0.4883 0.5v1.5115c0 0.25 0.25 0.5 0.5 0.5h1.5115c0.25 0 0.5 -0.25 0.5 -0.5v-1.5115c0 -0.25 -0.25 -0.5 -0.5 -0.5h-1.5115c-0.0039 0 -0.007815 -0.0001215 -0.01172 0zm3.954 0c-0.24605 0.00763 -0.4883 0.2539 -0.4883 0.5v1.5115c0 0.25 0.25 0.5 0.5 0.5h1.5115c0.25 0 0.5 -0.25 0.5 -0.5v-1.5115c0 -0.25 -0.25 -0.5 -0.5 -0.5h-1.5115c-0.0039 0 -0.007815 -0.0001215 -0.01172 0zm-3.954 3.954c-0.24605 0.00763 -0.4883 0.2539 -0.4883 0.5v1.5115c0 0.25 0.25 0.5 0.5 0.5h1.5115c0.25 0 0.5 -0.25 0.5 -0.5v-1.5115c0 -0.25 -0.25 -0.5 -0.5 -0.5h-1.5115c-0.0039 0 -0.007815 -0.0001215 -0.01172 0zm3.954 0c-0.24605 0.00763 -0.4883 0.2539 -0.4883 0.5v1.5115c0 0.25 0.25 0.5 0.5 0.5h1.5115c0.25 0 0.5 -0.25 0.5 -0.5v-1.5115c0 -0.25 -0.25 -0.5 -0.5 -0.5h-1.5115c-0.0039 0 -0.007815 -0.0001215 -0.01172 0zm-3.954 3.954c-0.24605 0.00763 -0.4883 0.2539 -0.4883 0.5v1.5115c0 0.25 0.25 0.5 0.5 0.5h1.5115c0.25 0 0.5 -0.25 0.5 -0.5v-1.5115c0 -0.25 -0.25 -0.5 -0.5 -0.5h-1.5115c-0.0039 0 -0.007815 -0.0001215 -0.01172 0zm3.954 0c-0.24605 0.00763 -0.4883 0.2539 -0.4883 0.5v1.5115c0 0.25 0.25 0.5 0.5 0.5h1.5115c0.25 0 0.5 -0.25 0.5 -0.5v-1.5115c0 -0.25 -0.25 -0.5 -0.5 -0.5h-1.5115c-0.0039 0 -0.007815 -0.0001215 -0.01172 0z" fill="#898a90" stroke-width="0.5"></path>
  <path d="M16.06 2.4425c-0.24605 0.00763 -0.4883 0.2539 -0.4883 0.5v1.2655c0 0.25 0.25 0.5 0.5 0.5h8.595c0.25 0 0.5 -0.25 0.5 -0.5V2.9425c0 -0.25 -0.25 -0.5 -0.5 -0.5h-8.605zm-8.735 16.695c-0.24605 0.00763 -0.4883 0.2539 -0.4883 0.5v1.5115c0 0.25 0.25 0.5 0.5 0.5h1.5115c0.25 0 0.5 -0.25 0.5 -0.5v-1.5115c0 -0.25 -0.25 -0.5 -0.5 -0.5h-1.5115c-0.0039 0 -0.007815 -0.0001215 -0.01172 0zm3.954 0c-0.24605 0.00763 -0.4883 0.2539 -0.4883 0.5v1.5115c0 0.25 0.25 0.5 0.5 0.5h1.5115c0.25 0 0.5 -0.25 0.5 -0.5v-1.5115c0 -0.25 -0.25 -0.5 -0.5 -0.5h-1.5115c-0.0039 0 -0.007815 -0.0001215 -0.01172 0zm3.954 0c-0.24605 0.00763 -0.4883 0.2539 -0.4883 0.5v1.5115c0 0.25 0.25 0.5 0.5 0.5h1.5115c0.25 0 0.5 -0.25 0.5 -0.5v-1.5115c0 -0.25 -0.25 -0.5 -0.5 -0.5h-1.5235zm-7.91 3.954c-0.24605 0.00763 -0.4883 0.2539 -0.4883 0.5v1.5115c0 0.25 0.25 0.5 0.5 0.5h1.5115c0.25 0 0.5 -0.25 0.5 -0.5v-1.5115c0 -0.25 -0.25 -0.5 -0.5 -0.5h-1.5115c-0.0039 0 -0.007815 -0.0001215 -0.01172 0zm3.954 0c-0.24605 0.00763 -0.4883 0.2539 -0.4883 0.5v1.5115c0 0.25 0.25 0.5 0.5 0.5h1.5115c0.25 0 0.5 -0.25 0.5 -0.5v-1.5115c0 -0.25 -0.25 -0.5 -0.5 -0.5h-1.5115c-0.0039 0 -0.007815 -0.0001215 -0.01172 0zm3.954 0c-0.24605 0.00763 -0.4883 0.2539 -0.4883 0.5v1.5115c0 0.25 0.25 0.5 0.5 0.5h1.5115c0.25 0 0.5 -0.25 0.5 -0.5v-1.5115c0 -0.25 -0.25 -0.5 -0.5 -0.5h-1.5115c-0.0039 0 -0.007815 -0.0001215 -0.01172 0zm-7.91 3.954c-0.24605 0.00763 -0.4883 0.2539 -0.4883 0.5v1.5115c0 0.25 0.25 0.5 0.5 0.5h1.5115c0.25 0 0.5 -0.25 0.5 -0.5v-1.5115c0 -0.25 -0.25 -0.5 -0.5 -0.5h-1.5115c-0.0039 0 -0.007815 -0.0001215 -0.01172 0zm3.954 0c-0.24605 0.00763 -0.4883 0.2539 -0.4883 0.5v1.5115c0 0.25 0.25 0.5 0.5 0.5h1.5115c0.25 0 0.5 -0.25 0.5 -0.5v-1.5115c0 -0.25 -0.25 -0.5 -0.5 -0.5h-1.5115c-0.0039 0 -0.007815 -0.0001215 -0.01172 0zm3.954 0c-0.24605 0.00763 -0.4883 0.2539 -0.4883 0.5v1.5115c0 0.25 0.25 0.5 0.5 0.5h1.5115c0.25 0 0.5 -0.25 0.5 -0.5v-1.5115c0 -0.25 -0.25 -0.5 -0.5 -0.5h-1.5115c-0.0039 0 -0.007815 -0.0001215 -0.01172 0z" fill="#3e4347" stroke-width="0.5"></path>
  <path d="M23.14 15.185c-0.24605 0.00763 -0.4883 0.2539 -0.4883 0.5v1.5115c0 0.25 0.25 0.5 0.5 0.5h1.5115c0.25 0 0.5 -0.25 0.5 -0.5V15.685c0 -0.25 -0.25 -0.5 -0.5 -0.5h-1.5235z" fill="#ed4c5c" stroke-width="0.5"></path>
</svg>